<svg xmlns="http://www.w3.org/2000/svg" viewBox="0 0 24 24" width="24" height="24" fill="none">
  <path d="M20.52 3.48A11.92 11.92 0 0 0 12 0C5.38 0 0 5.38 0 12c0 2.1.55 4.15 1.6 5.95L0 24l6.22-1.57A11.93 11.93 0 0 0 12 24c6.62 0 12-5.38 12-12 0-3.2-1.25-6.2-3.48-8.52Z" fill="#fff"/>
  <path d="M12.02 4.05c-4.39 0-7.95 3.56-7.95 7.95 0 1.57.46 3.1 1.34 4.4l.2.3-.8 2.94 3-.79.29.18a7.9 7.9 0 0 0 3.92 1.03h.01c4.38 0 7.95-3.57 7.95-7.95 0-2.12-.83-4.12-2.33-5.62a7.88 7.88 0 0 0-5.63-2.33Zm4.64 11.17c-.2.56-1.15 1.03-1.58 1.1-.4.06-.91.09-1.47-.1-.34-.11-.78-.26-1.35-.5-2.37-1.03-3.92-3.43-4.04-3.59-.12-.16-.96-1.27-.96-2.42 0-1.14.6-1.7.81-1.94.22-.23.47-.29.63-.29h.45c.14 0 .34-.05.53.4.2.47.67 1.64.73 1.76.07.12.1.26.02.42-.07.16-.11.26-.22.4-.11.13-.23.29-.32.38-.11.12-.23.25-.1.5.12.25.55.9 1.17 1.47.8.7 1.47.92 1.72 1.02.25.1.4.08.55-.05.15-.13.65-.76.82-1.02.17-.26.34-.22.57-.13.24.08 1.5.71 1.76.83.26.13.43.2.5.31.06.1.06.6-.13 1.16Z" fill="#25D366"/>
</svg>
